<?xml version="1.0" standalone="no"?>
<!DOCTYPE svg PUBLIC "-//W3C//DTD SVG 20010904//EN"
 "http://www.w3.org/TR/2001/REC-SVG-20010904/DTD/svg10.dtd">
<svg version="1.0" xmlns="http://www.w3.org/2000/svg"
 width="748.000000pt" height="748.000000pt" viewBox="0 0 748.000000 748.000000"
 preserveAspectRatio="xMidYMid meet">
<metadata>
Created by potrace 1.11, written by Peter Selinger 2001-2013
</metadata>
<g transform="translate(0.000000,748.000000) scale(0.100000,-0.100000)"
fill="#000000" stroke="none">
<path d="M2765 5337 c-16 -13 -66 -50 -109 -83 -206 -154 -412 -410 -518 -644
-114 -250 -163 -476 -163 -745 0 -209 28 -387 90 -564 191 -548 621 -957 1173
-1116 93 -27 98 -28 172 -40 25 -4 53 -9 62 -10 163 -31 408 -23 626 20 130
25 342 105 472 177 78 43 89 52 80 68 -9 16 -21 12 -143 -50 -190 -96 -387
-157 -567 -177 -92 -10 -355 -10 -430 -1 -126 17 -318 65 -410 104 -497 212
-825 556 -995 1047 -57 162 -94 395 -89 561 1 72 15 239 19 246 2 3 6 23 9 44
39 244 176 546 344 756 113 141 314 323 420 379 18 10 20 15 12 31 -13 25 -18
24 -55 -3z"/>
<path d="M3020 3949 c-168 -265 -309 -488 -313 -495 -6 -11 3 -14 45 -14 l53
1 95 154 95 154 364 -2 364 -2 95 -152 94 -153 83 0 c76 0 86 2 100 23 21 28
584 906 596 930 9 15 4 17 -40 17 l-49 0 -98 -151 -97 -151 -360 6 c-198 3
-362 8 -366 11 -3 4 -47 72 -96 153 l-91 147 -84 3 -85 2 -305 -481z m497 138
c78 -128 145 -239 148 -248 5 -15 -24 -16 -304 -16 -171 0 -311 3 -310 6 0 3
38 65 84 136 46 72 116 181 155 243 39 61 74 112 78 112 4 -1 71 -105 149
-233z m675 -48 c154 -3 166 -4 157 -20 -5 -10 -76 -121 -158 -248 l-149 -231
-64 102 c-34 56 -72 116 -83 134 -11 18 -51 83 -90 145 -38 62 -71 116 -73
120 -1 3 64 5 145 3 81 -1 223 -4 315 -5z"/>
</g>
</svg>
